HIERARCHY
ROOT Hips
{
  OFFSET 15.5333 85.8822 -28.0531
  CHANNELS 6 Xposition Yposition Zposition Zrotation Xrotation Yrotation
  End Site
  {
    OFFSET 0 0 0
  }
}
MOTION
Frames:	142
Frame Time:	0.00833333
7.25057 86.1524 -28.7861 29.3504 78.9571 153.323 
7.23158 86.1526 -28.7669 29.2499 78.9888 153.424 
7.21282 86.1527 -28.7476 29.1519 79.0209 153.525 
7.19461 86.1527 -28.7276 29.0607 79.0541 153.623 
7.17719 86.1524 -28.7088 28.9656 79.0923 153.731 
7.16034 86.152 -28.6907 28.868 79.1341 153.846 
7.1437 86.1515 -28.6699 28.7912 79.1716 153.94 
7.12689 86.1511 -28.6433 28.7589 79.1972 153.986 
7.10804 86.1511 -28.6058 28.814 79.2037 153.937 
7.08794 86.1511 -28.5606 28.932 79.1967 153.82 
7.07023 86.151 -28.5165 29.0361 79.1886 153.718 
7.05853 86.1503 -28.4821 29.0504 79.1919 153.71 
7.05555 86.1488 -28.463 28.9319 79.2133 153.842 
7.05877 86.1468 -28.4534 28.7278 79.2449 154.065 
7.064 86.1446 -28.4453 28.4977 79.2772 154.314 
7.06706 86.1424 -28.4307 28.3024 79.3011 154.521 
7.06642 86.1404 -28.406 28.1622 79.3116 154.666 
7.06446 86.1382 -28.3758 28.0442 79.3145 154.782 
7.06279 86.1362 -28.3451 27.9295 79.3168 154.894 
7.06304 86.1343 -28.3186 27.7993 79.3251 155.023 
7.066 86.1326 -28.2985 27.6382 79.3431 155.186 
7.0707 86.131 -28.2819 27.4594 79.3666 155.368 
7.07604 86.1294 -28.2661 27.2863 79.3905 155.544 
7.08095 86.1279 -28.2484 27.1432 79.4101 155.689 
7.08473 86.1264 -28.228 27.0419 79.4241 155.788 
7.08809 86.1248 -28.2063 26.9681 79.4349 155.858 
7.09208 86.1233 -28.1842 26.9069 79.444 155.914 
7.09773 86.1219 -28.1625 26.8435 79.4523 155.975 
7.1058 86.1207 -28.142 26.7698 79.4617 156.048 
7.11558 86.1196 -28.1221 26.695 79.4709 156.123 
7.1259 86.1186 -28.1013 26.6305 79.4772 156.189 
7.1356 86.1174 -28.078 26.5876 79.4775 156.231 
7.14369 86.1163 -28.0508 26.5721 79.4699 156.243 
7.15101 86.1153 -28.0208 26.5771 79.4561 156.234 
7.15916 86.1141 -27.9907 26.5946 79.4398 156.212 
7.16976 86.1125 -27.9633 26.6165 79.4242 156.189 
7.18367 86.1104 -27.9392 26.6448 79.4095 156.163 
7.19989 86.1079 -27.917 26.6824 79.3941 156.131 
7.21721 86.1054 -27.8963 26.7228 79.3789 156.096 
7.23441 86.1031 -27.8768 26.7599 79.3646 156.065 
7.25151 86.1014 -27.8595 26.7841 79.3522 156.046 
7.26904 86.0999 -27.8443 26.8014 79.3409 156.035 
7.28657 86.0984 -27.8289 26.829 79.3293 156.013 
7.30363 86.0969 -27.8111 26.8837 79.3159 155.965 
7.32012 86.095 -27.7897 26.9843 79.299 155.871 
7.33626 86.093 -27.7659 27.1167 79.2798 155.746 
7.35217 86.0911 -27.7418 27.2489 79.261 155.621 
7.36793 86.0895 -27.7194 27.3487 79.2458 155.527 
7.38338 86.0883 -27.6988 27.4086 79.2346 155.473 
7.39852 86.0874 -27.6792 27.4455 79.2259 155.44 
7.41375 86.0866 -27.6608 27.4647 79.2197 155.425 
7.42948 86.0859 -27.6437 27.4711 79.2159 155.424 
7.44612 86.085 -27.6287 27.4606 79.2149 155.442 
7.46334 86.0842 -27.6154 27.4323 79.2165 155.479 
7.48047 86.0834 -27.6025 27.3963 79.22 155.524 
7.49685 86.0828 -27.5887 27.3633 79.2243 155.564 
7.51207 86.0824 -27.573 27.342 79.2293 155.589 
7.52657 86.0821 -27.5564 27.325 79.2354 155.608 
7.5409 86.082 -27.5401 27.2977 79.2429 155.637 
7.55561 86.0818 -27.5255 27.2457 79.2522 155.692 
7.57087 86.0815 -27.5133 27.1515 79.264 155.791 
7.58639 86.0813 -27.5025 27.0272 79.2778 155.92 
7.602 86.0811 -27.4924 26.9024 79.2923 156.051 
7.61754 86.0811 -27.4822 26.8071 79.306 156.151 
7.63286 86.0814 -27.4712 26.7584 79.3186 156.205 
7.64808 86.0819 -27.46 26.7377 79.3309 156.231 
7.66345 86.0824 -27.4494 26.7203 79.343 156.254 
7.67923 86.0828 -27.44 26.6822 79.355 156.298 
7.696 86.0828 -27.4334 26.6057 79.3677 156.383 
7.71345 86.0827 -27.4288 26.5073 79.3809 156.491 
7.7305 86.0826 -27.4233 26.4139 79.3926 156.594 
7.74606 86.0824 -27.4141 26.3523 79.4012 156.662 
7.75891 86.0823 -27.3977 26.3422 79.4045 156.675 
7.76994 86.0822 -27.3764 26.3653 79.404 156.652 
7.78124 86.0821 -27.3565 26.3913 79.4035 156.627 
7.79493 86.0818 -27.3442 26.3898 79.4069 156.634 
7.8121 86.0814 -27.3428 26.3497 79.4159 156.687 
7.83143 86.0808 -27.3485 26.2879 79.4283 156.765 
7.85148 86.0802 -27.3566 26.2171 79.4417 156.854 
7.87078 86.0797 -27.3627 26.1497 79.4535 156.938 
7.88951 86.0794 -27.3664 26.0814 79.4638 157.02 
7.90826 86.0792 -27.3698 26.008 79.4737 157.107 
7.9262 86.0791 -27.372 25.943 79.4823 157.184 
7.94248 86.0789 -27.372 25.8996 79.4888 157.237 
7.95623 86.0786 -27.3687 25.8906 79.4916 157.252 
7.96813 86.0782 -27.3628 25.9058 79.4917 157.241 
7.97963 86.0779 -27.3563 25.9244 79.4917 157.225 
7.99219 86.0777 -27.3512 25.9252 79.4943 157.229 
8.00553 86.0775 -27.3464 25.9096 79.4991 157.25 
8.01911 86.0775 -27.3414 25.8863 79.5052 157.278 
8.03395 86.0776 -27.3389 25.846 79.5138 157.326 
8.05108 86.0778 -27.3415 25.7787 79.5263 157.403 
8.07233 86.0783 -27.3527 25.6677 79.5461 157.529 
8.09664 86.0789 -27.3702 25.5223 79.5716 157.693 
8.12068 86.0796 -27.388 25.3726 79.5957 157.861 
8.14116 86.0798 -27.4 25.2488 79.6119 157.999 
8.15711 86.0797 -27.4051 25.1495 79.6182 158.108 
8.17034 86.0792 -27.4063 25.062 79.6183 158.203 
8.18162 86.0786 -27.404 25.0008 79.6138 158.269 
8.19173 86.078 -27.3984 24.9806 79.6062 158.292 
8.19951 86.0775 -27.3865 25.029 79.593 158.243 
8.205 86.0769 -27.3692 25.13 79.5743 158.138 
8.2108 86.0763 -27.3526 25.2326 79.5558 158.032 
8.21953 86.0758 -27.343 25.2864 79.5431 157.978 
8.23271 86.0755 -27.3436 25.2665 79.5393 158.004 
8.24868 86.0753 -27.3506 25.204 79.541 158.076 
8.26524 86.0751 -27.3595 25.1321 79.5436 158.158 
8.2802 86.0749 -27.3657 25.084 79.543 158.215 
8.29292 86.0747 -27.3679 25.0692 79.5375 158.237 
8.30458 86.0745 -27.3687 25.0699 79.5296 158.242 
8.31575 86.0741 -27.3689 25.0782 79.521 158.239 
8.32698 86.0736 -27.3697 25.0872 79.5131 158.236 
8.33851 86.0726 -27.371 25.0988 79.5062 158.231 
8.34999 86.0714 -27.3725 25.1157 79.4996 158.22 
8.36119 86.0702 -27.3743 25.1309 79.4932 158.211 
8.37186 86.0694 -27.3768 25.1381 79.4871 158.21 
8.38187 86.0691 -27.3803 25.1354 79.4816 158.218 
8.39139 86.0692 -27.3847 25.1262 79.4766 158.231 
8.40054 86.0693 -27.3891 25.1119 79.4716 158.25 
8.40947 86.0693 -27.3927 25.0937 79.4664 158.273 
8.41819 86.0691 -27.3947 25.068 79.4602 158.303 
8.42664 86.0688 -27.3958 25.0356 79.4535 158.34 
8.43484 86.0684 -27.3972 25.0036 79.4475 158.377 
8.44282 86.0682 -27.3999 24.9799 79.4435 158.406 
8.45064 86.0681 -27.4049 24.9691 79.4426 158.423 
8.45826 86.0681 -27.4113 24.9662 79.444 158.432 
8.46559 86.0681 -27.4178 24.9643 79.4455 158.441 
8.47254 86.0679 -27.4229 24.9561 79.4449 158.456 
8.47903 86.0673 -27.4255 24.9422 79.4409 158.476 
8.48513 86.0665 -27.4268 24.9254 79.435 158.498 
8.49094 86.0657 -27.4281 24.903 79.429 158.526 
8.4966 86.0651 -27.431 24.8717 79.4249 158.563 
8.50214 86.0649 -27.4365 24.8257 79.4242 158.616 
8.50752 86.0649 -27.4436 24.7682 79.4256 158.681 
8.51263 86.065 -27.4508 24.7104 79.4265 158.747 
8.51737 86.0649 -27.4569 24.6631 79.4242 158.801 
8.52172 86.0645 -27.4611 24.6295 79.4176 158.84 
8.52574 86.064 -27.4645 24.6034 79.4083 158.871 
8.52944 86.0634 -27.4674 24.5832 79.3977 158.896 
8.53285 86.0629 -27.4705 24.5665 79.3871 158.918 
8.53583 86.0624 -27.4735 24.5492 79.3768 158.939 
8.5384 86.062 -27.4762 24.5337 79.3662 158.959 
